<mxfile host="app.diagrams.net" modified="2021-08-02T07:48:14.276Z" agent="5.0 (Windows NT 10.0; Win64; x64) AppleWebKit/537.36 (KHTML, like Gecko) Chrome/91.0.4472.164 Safari/537.36" etag="TzKSYcWHrjrk5DQBiUxq" version="14.9.2" type="github">
  <diagram id="1v4-q3JJ3BF3rLonqGm6" name="Page-1">
    <mxGraphModel dx="2062" dy="2267" grid="1" gridSize="10" guides="1" tooltips="1" connect="1" arrows="1" fold="1" page="1" pageScale="1" pageWidth="827" pageHeight="1169" math="0" shadow="0">
      <root>
        <mxCell id="0" />
        <mxCell id="1" parent="0" />
        <mxCell id="4IxoNGBiL0sOaZmvlDB4-8" value="engine" style="shape=umlFrame;whiteSpace=wrap;html=1;" vertex="1" parent="1">
          <mxGeometry x="750" y="-430" width="480" height="410" as="geometry" />
        </mxCell>
        <mxCell id="4IxoNGBiL0sOaZmvlDB4-7" value="editor" style="shape=umlFrame;whiteSpace=wrap;html=1;" vertex="1" parent="1">
          <mxGeometry x="20" y="10" width="1210" height="780" as="geometry" />
        </mxCell>
        <mxCell id="rtTn-14dv-DHAK5EhPJp-1" value="&lt;p style=&quot;margin: 0px ; margin-top: 4px ; text-align: center&quot;&gt;&lt;b&gt;componentinspector&lt;/b&gt;&lt;/p&gt;&lt;hr size=&quot;1&quot;&gt;&lt;p style=&quot;margin: 0px ; margin-left: 4px&quot;&gt;+ field: Type&lt;/p&gt;&lt;hr size=&quot;1&quot;&gt;&lt;p style=&quot;margin: 0px ; margin-left: 4px&quot;&gt;+ method(): Type&lt;/p&gt;" style="verticalAlign=top;align=left;overflow=fill;fontSize=12;fontFamily=Helvetica;html=1;" parent="1" vertex="1">
          <mxGeometry x="245" y="200" width="160" height="90" as="geometry" />
        </mxCell>
        <mxCell id="rtTn-14dv-DHAK5EhPJp-2" value="&lt;p style=&quot;margin: 0px ; margin-top: 4px ; text-align: center&quot;&gt;&lt;b&gt;overlifeinspector&lt;/b&gt;&lt;/p&gt;&lt;hr size=&quot;1&quot;&gt;&lt;p style=&quot;margin: 0px ; margin-left: 4px&quot;&gt;+ field: Type&lt;/p&gt;&lt;hr size=&quot;1&quot;&gt;&lt;p style=&quot;margin: 0px ; margin-left: 4px&quot;&gt;+ method(): Type&lt;/p&gt;" style="verticalAlign=top;align=left;overflow=fill;fontSize=12;fontFamily=Helvetica;html=1;" parent="1" vertex="1">
          <mxGeometry x="50" y="565" width="160" height="90" as="geometry" />
        </mxCell>
        <mxCell id="rtTn-14dv-DHAK5EhPJp-4" value="&lt;p style=&quot;margin: 0px ; margin-top: 4px ; text-align: center&quot;&gt;&lt;i&gt;&amp;lt;&amp;lt;Interface&amp;gt;&amp;gt;&lt;/i&gt;&lt;br&gt;&lt;b&gt;Inspector&lt;/b&gt;&lt;/p&gt;&lt;hr size=&quot;1&quot;&gt;&lt;p style=&quot;margin: 0px ; margin-left: 4px&quot;&gt;+ field1: Type&lt;br&gt;+ field2: Type&lt;/p&gt;&lt;hr size=&quot;1&quot;&gt;&lt;p style=&quot;margin: 0px ; margin-left: 4px&quot;&gt;+ render()&lt;br&gt;&lt;/p&gt;" style="verticalAlign=top;align=left;overflow=fill;fontSize=12;fontFamily=Helvetica;html=1;" parent="1" vertex="1">
          <mxGeometry x="230" y="345" width="190" height="140" as="geometry" />
        </mxCell>
        <mxCell id="rtTn-14dv-DHAK5EhPJp-5" value="&lt;p style=&quot;margin: 0px ; margin-top: 4px ; text-align: center&quot;&gt;&lt;b&gt;effect&lt;/b&gt;&lt;/p&gt;&lt;hr size=&quot;1&quot;&gt;&lt;p style=&quot;margin: 0px ; margin-left: 4px&quot;&gt;+ field: Type&lt;/p&gt;&lt;hr size=&quot;1&quot;&gt;&lt;p style=&quot;margin: 0px ; margin-left: 4px&quot;&gt;+ append_to_node(node_sptr node)&lt;/p&gt;&lt;p style=&quot;margin: 0px ; margin-left: 4px&quot;&gt;+&amp;nbsp;remove_from_node(node_sptr node)&lt;/p&gt;" style="verticalAlign=top;align=left;overflow=fill;fontSize=12;fontFamily=Helvetica;html=1;" parent="1" vertex="1">
          <mxGeometry x="803.5" y="-140" width="213" height="90" as="geometry" />
        </mxCell>
        <mxCell id="rtTn-14dv-DHAK5EhPJp-8" value="&lt;p style=&quot;margin: 0px ; margin-top: 4px ; text-align: center&quot;&gt;&lt;b&gt;particlegraph&lt;/b&gt;&lt;/p&gt;&lt;hr size=&quot;1&quot;&gt;&lt;p style=&quot;margin: 0px ; margin-left: 4px&quot;&gt;+ field: Type&lt;/p&gt;&lt;hr size=&quot;1&quot;&gt;&lt;p style=&quot;margin: 0px ; margin-left: 4px&quot;&gt;+ save(): Type&lt;/p&gt;&lt;p style=&quot;margin: 0px ; margin-left: 4px&quot;&gt;+ load()&lt;/p&gt;&lt;p style=&quot;margin: 0px ; margin-left: 4px&quot;&gt;+ parse()&lt;/p&gt;&lt;p style=&quot;margin: 0px ; margin-left: 4px&quot;&gt;+ addcomponent(moduletype)&lt;/p&gt;" style="verticalAlign=top;align=left;overflow=fill;fontSize=12;fontFamily=Helvetica;html=1;" parent="1" vertex="1">
          <mxGeometry x="818.5" y="20" width="183" height="120" as="geometry" />
        </mxCell>
        <mxCell id="rtTn-14dv-DHAK5EhPJp-9" value="&lt;p style=&quot;margin: 0px ; margin-top: 4px ; text-align: center&quot;&gt;&lt;i&gt;&amp;lt;&amp;lt;Interface&amp;gt;&amp;gt;&lt;/i&gt;&lt;br&gt;&lt;b&gt;EditorModule&lt;/b&gt;&lt;br&gt;&lt;/p&gt;&lt;hr size=&quot;1&quot;&gt;&lt;p style=&quot;margin: 0px ; margin-left: 4px&quot;&gt;+ field1: Type&lt;br&gt;+ field2: Type&lt;/p&gt;&lt;hr size=&quot;1&quot;&gt;&lt;p style=&quot;margin: 0px ; margin-left: 4px&quot;&gt;+ render()&lt;br&gt;&lt;/p&gt;&lt;p style=&quot;margin: 0px ; margin-left: 4px&quot;&gt;+ onselected()&lt;/p&gt;" style="verticalAlign=top;align=left;overflow=fill;fontSize=12;fontFamily=Helvetica;html=1;" parent="1" vertex="1">
          <mxGeometry x="815" y="345" width="190" height="140" as="geometry" />
        </mxCell>
        <mxCell id="rtTn-14dv-DHAK5EhPJp-10" value="&lt;p style=&quot;margin: 0px ; margin-top: 4px ; text-align: center&quot;&gt;&lt;b&gt;overlifewrap&lt;/b&gt;&lt;/p&gt;&lt;hr size=&quot;1&quot;&gt;&lt;p style=&quot;margin: 0px ; margin-left: 4px&quot;&gt;+ field: Type&lt;/p&gt;&lt;hr size=&quot;1&quot;&gt;&lt;p style=&quot;margin: 0px ; margin-left: 4px&quot;&gt;+ method(): Type&lt;/p&gt;" style="verticalAlign=top;align=left;overflow=fill;fontSize=12;fontFamily=Helvetica;html=1;" parent="1" vertex="1">
          <mxGeometry x="650" y="565" width="160" height="90" as="geometry" />
        </mxCell>
        <mxCell id="rtTn-14dv-DHAK5EhPJp-11" value="&lt;p style=&quot;margin: 0px ; margin-top: 4px ; text-align: center&quot;&gt;&lt;b&gt;initializerwrap&lt;/b&gt;&lt;/p&gt;&lt;hr size=&quot;1&quot;&gt;&lt;p style=&quot;margin: 0px ; margin-left: 4px&quot;&gt;+ field: Type&lt;/p&gt;&lt;hr size=&quot;1&quot;&gt;&lt;p style=&quot;margin: 0px ; margin-left: 4px&quot;&gt;+ method(): Type&lt;/p&gt;" style="verticalAlign=top;align=left;overflow=fill;fontSize=12;fontFamily=Helvetica;html=1;" parent="1" vertex="1">
          <mxGeometry x="840" y="565" width="160" height="90" as="geometry" />
        </mxCell>
        <mxCell id="rtTn-14dv-DHAK5EhPJp-12" value="&lt;p style=&quot;margin: 0px ; margin-top: 4px ; text-align: center&quot;&gt;&lt;b&gt;byspeedwrap&lt;/b&gt;&lt;/p&gt;&lt;hr size=&quot;1&quot;&gt;&lt;p style=&quot;margin: 0px ; margin-left: 4px&quot;&gt;+ field: Type&lt;/p&gt;&lt;hr size=&quot;1&quot;&gt;&lt;p style=&quot;margin: 0px ; margin-left: 4px&quot;&gt;+ method(): Type&lt;/p&gt;" style="verticalAlign=top;align=left;overflow=fill;fontSize=12;fontFamily=Helvetica;html=1;" parent="1" vertex="1">
          <mxGeometry x="1030" y="565" width="160" height="90" as="geometry" />
        </mxCell>
        <mxCell id="rtTn-14dv-DHAK5EhPJp-24" value="" style="endArrow=block;dashed=1;endFill=0;endSize=12;html=1;exitX=0.5;exitY=0;exitDx=0;exitDy=0;entryX=0.75;entryY=1;entryDx=0;entryDy=0;" parent="1" source="rtTn-14dv-DHAK5EhPJp-12" target="rtTn-14dv-DHAK5EhPJp-9" edge="1">
          <mxGeometry width="160" relative="1" as="geometry">
            <mxPoint x="940" y="475" as="sourcePoint" />
            <mxPoint x="1100" y="475" as="targetPoint" />
          </mxGeometry>
        </mxCell>
        <mxCell id="rtTn-14dv-DHAK5EhPJp-25" value="" style="endArrow=block;dashed=1;endFill=0;endSize=12;html=1;exitX=0.444;exitY=-0.044;exitDx=0;exitDy=0;exitPerimeter=0;entryX=0.5;entryY=1;entryDx=0;entryDy=0;" parent="1" source="rtTn-14dv-DHAK5EhPJp-11" target="rtTn-14dv-DHAK5EhPJp-9" edge="1">
          <mxGeometry width="160" relative="1" as="geometry">
            <mxPoint x="820" y="465" as="sourcePoint" />
            <mxPoint x="980" y="465" as="targetPoint" />
          </mxGeometry>
        </mxCell>
        <mxCell id="rtTn-14dv-DHAK5EhPJp-26" value="" style="endArrow=block;dashed=1;endFill=0;endSize=12;html=1;exitX=0.5;exitY=0;exitDx=0;exitDy=0;entryX=0.25;entryY=1;entryDx=0;entryDy=0;" parent="1" source="rtTn-14dv-DHAK5EhPJp-10" target="rtTn-14dv-DHAK5EhPJp-9" edge="1">
          <mxGeometry width="160" relative="1" as="geometry">
            <mxPoint x="540" y="475" as="sourcePoint" />
            <mxPoint x="770" y="448" as="targetPoint" />
          </mxGeometry>
        </mxCell>
        <mxCell id="rtTn-14dv-DHAK5EhPJp-27" value="&lt;p style=&quot;margin: 0px ; margin-top: 4px ; text-align: center&quot;&gt;&lt;b&gt;particlecomponent&lt;/b&gt;&lt;/p&gt;&lt;hr size=&quot;1&quot;&gt;&lt;p style=&quot;margin: 0px ; margin-left: 4px&quot;&gt;+ pos: vec2&lt;/p&gt;&lt;hr size=&quot;1&quot;&gt;&lt;p style=&quot;margin: 0px ; margin-left: 4px&quot;&gt;+ addmodule(): Type&lt;/p&gt;&lt;p style=&quot;margin: 0px ; margin-left: 4px&quot;&gt;+ removemodule()&lt;/p&gt;&lt;p style=&quot;margin: 0px ; margin-left: 4px&quot;&gt;+ render()&lt;/p&gt;&lt;p style=&quot;margin: 0px ; margin-left: 4px&quot;&gt;+ onselected()&lt;br&gt;&lt;/p&gt;" style="verticalAlign=top;align=left;overflow=fill;fontSize=12;fontFamily=Helvetica;html=1;" parent="1" vertex="1">
          <mxGeometry x="830" y="185" width="160" height="120" as="geometry" />
        </mxCell>
        <mxCell id="rtTn-14dv-DHAK5EhPJp-28" value="Use" style="endArrow=open;endSize=12;dashed=1;html=1;exitX=0.5;exitY=1;exitDx=0;exitDy=0;entryX=0.5;entryY=0;entryDx=0;entryDy=0;" parent="1" source="rtTn-14dv-DHAK5EhPJp-27" target="rtTn-14dv-DHAK5EhPJp-9" edge="1">
          <mxGeometry width="160" relative="1" as="geometry">
            <mxPoint x="910" y="325" as="sourcePoint" />
            <mxPoint x="690" y="355" as="targetPoint" />
          </mxGeometry>
        </mxCell>
        <mxCell id="rtTn-14dv-DHAK5EhPJp-29" value="Use" style="endArrow=open;endSize=12;dashed=1;html=1;exitX=0.5;exitY=1;exitDx=0;exitDy=0;entryX=0.5;entryY=0;entryDx=0;entryDy=0;" parent="1" source="rtTn-14dv-DHAK5EhPJp-8" target="rtTn-14dv-DHAK5EhPJp-27" edge="1">
          <mxGeometry width="160" relative="1" as="geometry">
            <mxPoint x="410" y="420" as="sourcePoint" />
            <mxPoint x="570" y="420" as="targetPoint" />
          </mxGeometry>
        </mxCell>
        <mxCell id="rtTn-14dv-DHAK5EhPJp-35" value="&lt;p style=&quot;margin: 0px ; margin-top: 4px ; text-align: center&quot;&gt;&lt;b&gt;initializerinspector&lt;/b&gt;&lt;/p&gt;&lt;hr size=&quot;1&quot;&gt;&lt;p style=&quot;margin: 0px ; margin-left: 4px&quot;&gt;+ field: Type&lt;/p&gt;&lt;hr size=&quot;1&quot;&gt;&lt;p style=&quot;margin: 0px ; margin-left: 4px&quot;&gt;+ method(): Type&lt;/p&gt;" style="verticalAlign=top;align=left;overflow=fill;fontSize=12;fontFamily=Helvetica;html=1;" parent="1" vertex="1">
          <mxGeometry x="245" y="565" width="160" height="90" as="geometry" />
        </mxCell>
        <mxCell id="rtTn-14dv-DHAK5EhPJp-36" value="&lt;p style=&quot;margin: 0px ; margin-top: 4px ; text-align: center&quot;&gt;&lt;b&gt;byspeedinspector&lt;/b&gt;&lt;/p&gt;&lt;hr size=&quot;1&quot;&gt;&lt;p style=&quot;margin: 0px ; margin-left: 4px&quot;&gt;+ field: Type&lt;/p&gt;&lt;hr size=&quot;1&quot;&gt;&lt;p style=&quot;margin: 0px ; margin-left: 4px&quot;&gt;+ method(): Type&lt;/p&gt;" style="verticalAlign=top;align=left;overflow=fill;fontSize=12;fontFamily=Helvetica;html=1;" parent="1" vertex="1">
          <mxGeometry x="434" y="565" width="160" height="90" as="geometry" />
        </mxCell>
        <mxCell id="rtTn-14dv-DHAK5EhPJp-37" value="" style="endArrow=block;dashed=1;endFill=0;endSize=12;html=1;exitX=0.5;exitY=0;exitDx=0;exitDy=0;entryX=0.25;entryY=1;entryDx=0;entryDy=0;" parent="1" source="rtTn-14dv-DHAK5EhPJp-2" target="rtTn-14dv-DHAK5EhPJp-4" edge="1">
          <mxGeometry width="160" relative="1" as="geometry">
            <mxPoint x="330" y="475" as="sourcePoint" />
            <mxPoint x="490" y="475" as="targetPoint" />
          </mxGeometry>
        </mxCell>
        <mxCell id="rtTn-14dv-DHAK5EhPJp-38" value="" style="endArrow=block;dashed=1;endFill=0;endSize=12;html=1;exitX=0.5;exitY=0;exitDx=0;exitDy=0;entryX=0.5;entryY=1;entryDx=0;entryDy=0;" parent="1" source="rtTn-14dv-DHAK5EhPJp-35" target="rtTn-14dv-DHAK5EhPJp-4" edge="1">
          <mxGeometry width="160" relative="1" as="geometry">
            <mxPoint x="330" y="475" as="sourcePoint" />
            <mxPoint x="270" y="385" as="targetPoint" />
          </mxGeometry>
        </mxCell>
        <mxCell id="rtTn-14dv-DHAK5EhPJp-39" value="" style="endArrow=block;dashed=1;endFill=0;endSize=12;html=1;exitX=0.5;exitY=0;exitDx=0;exitDy=0;entryX=0.75;entryY=1;entryDx=0;entryDy=0;" parent="1" source="rtTn-14dv-DHAK5EhPJp-36" target="rtTn-14dv-DHAK5EhPJp-4" edge="1">
          <mxGeometry width="160" relative="1" as="geometry">
            <mxPoint x="330" y="475" as="sourcePoint" />
            <mxPoint x="490" y="475" as="targetPoint" />
          </mxGeometry>
        </mxCell>
        <mxCell id="rtTn-14dv-DHAK5EhPJp-40" value="Use" style="endArrow=open;endSize=12;dashed=1;html=1;exitX=0.5;exitY=1;exitDx=0;exitDy=0;entryX=0.5;entryY=1;entryDx=0;entryDy=0;" parent="1" source="rtTn-14dv-DHAK5EhPJp-2" target="rtTn-14dv-DHAK5EhPJp-10" edge="1">
          <mxGeometry width="160" relative="1" as="geometry">
            <mxPoint x="330" y="560" as="sourcePoint" />
            <mxPoint x="490" y="560" as="targetPoint" />
            <Array as="points">
              <mxPoint x="430" y="760" />
            </Array>
          </mxGeometry>
        </mxCell>
        <mxCell id="rtTn-14dv-DHAK5EhPJp-41" value="&lt;p style=&quot;margin: 0px ; margin-top: 4px ; text-align: center&quot;&gt;&lt;b&gt;particle&lt;/b&gt;&lt;/p&gt;&lt;hr size=&quot;1&quot;&gt;&lt;p style=&quot;margin: 0px ; margin-left: 4px&quot;&gt;+ field: Type&lt;/p&gt;&lt;hr size=&quot;1&quot;&gt;&lt;p style=&quot;margin: 0px ; margin-left: 4px&quot;&gt;+ method(): Type&lt;/p&gt;" style="verticalAlign=top;align=left;overflow=fill;fontSize=12;fontFamily=Helvetica;html=1;" parent="1" vertex="1">
          <mxGeometry x="1043" y="-280" width="160" height="90" as="geometry" />
        </mxCell>
        <mxCell id="rtTn-14dv-DHAK5EhPJp-42" value="Use" style="endArrow=open;endSize=12;dashed=1;html=1;exitX=0.75;exitY=0;exitDx=0;exitDy=0;entryX=0.456;entryY=1.044;entryDx=0;entryDy=0;entryPerimeter=0;" parent="1" source="rtTn-14dv-DHAK5EhPJp-5" target="rtTn-14dv-DHAK5EhPJp-41" edge="1">
          <mxGeometry width="160" relative="1" as="geometry">
            <mxPoint x="-117" y="-220" as="sourcePoint" />
            <mxPoint x="43" y="-220" as="targetPoint" />
          </mxGeometry>
        </mxCell>
        <mxCell id="4IxoNGBiL0sOaZmvlDB4-1" value="" style="endArrow=block;dashed=1;endFill=0;endSize=12;html=1;exitX=0.5;exitY=1;exitDx=0;exitDy=0;entryX=0.5;entryY=0;entryDx=0;entryDy=0;" edge="1" parent="1" source="rtTn-14dv-DHAK5EhPJp-1" target="rtTn-14dv-DHAK5EhPJp-4">
          <mxGeometry width="160" relative="1" as="geometry">
            <mxPoint x="750" y="475" as="sourcePoint" />
            <mxPoint x="910" y="475" as="targetPoint" />
          </mxGeometry>
        </mxCell>
        <mxCell id="4IxoNGBiL0sOaZmvlDB4-2" value="Use" style="endArrow=open;endSize=12;dashed=1;html=1;exitX=1;exitY=0.5;exitDx=0;exitDy=0;entryX=0;entryY=0.5;entryDx=0;entryDy=0;" edge="1" parent="1" source="rtTn-14dv-DHAK5EhPJp-1" target="rtTn-14dv-DHAK5EhPJp-27">
          <mxGeometry width="160" relative="1" as="geometry">
            <mxPoint x="750" y="475" as="sourcePoint" />
            <mxPoint x="910" y="475" as="targetPoint" />
          </mxGeometry>
        </mxCell>
        <mxCell id="4IxoNGBiL0sOaZmvlDB4-4" value="&lt;p style=&quot;margin: 0px ; margin-top: 4px ; text-align: center&quot;&gt;&lt;b&gt;component&lt;/b&gt;&lt;/p&gt;&lt;hr size=&quot;1&quot;&gt;&lt;p style=&quot;margin: 0px ; margin-left: 4px&quot;&gt;+ field: Type&lt;/p&gt;&lt;hr size=&quot;1&quot;&gt;&lt;p style=&quot;margin: 0px ; margin-left: 4px&quot;&gt;+ method(): Type&lt;/p&gt;" style="verticalAlign=top;align=left;overflow=fill;fontSize=12;fontFamily=Helvetica;html=1;" vertex="1" parent="1">
          <mxGeometry x="1043" y="-400" width="160" height="90" as="geometry" />
        </mxCell>
        <mxCell id="4IxoNGBiL0sOaZmvlDB4-5" value="Extends" style="endArrow=block;endSize=16;endFill=0;html=1;entryX=0.5;entryY=1;entryDx=0;entryDy=0;exitX=0.5;exitY=0;exitDx=0;exitDy=0;" edge="1" parent="1" source="rtTn-14dv-DHAK5EhPJp-41" target="4IxoNGBiL0sOaZmvlDB4-4">
          <mxGeometry width="160" relative="1" as="geometry">
            <mxPoint x="633" y="44.5" as="sourcePoint" />
            <mxPoint x="793" y="44.5" as="targetPoint" />
          </mxGeometry>
        </mxCell>
        <mxCell id="4IxoNGBiL0sOaZmvlDB4-6" value="Use" style="endArrow=open;endSize=12;dashed=1;html=1;entryX=0.5;entryY=1;entryDx=0;entryDy=0;exitX=0.5;exitY=0;exitDx=0;exitDy=0;" edge="1" parent="1" source="rtTn-14dv-DHAK5EhPJp-8" target="rtTn-14dv-DHAK5EhPJp-5">
          <mxGeometry width="160" relative="1" as="geometry">
            <mxPoint x="750" y="120" as="sourcePoint" />
            <mxPoint x="910" y="-40" as="targetPoint" />
          </mxGeometry>
        </mxCell>
        <mxCell id="4IxoNGBiL0sOaZmvlDB4-9" value="&lt;p style=&quot;margin: 0px ; margin-top: 4px ; text-align: center&quot;&gt;&lt;b&gt;asset&lt;/b&gt;&lt;/p&gt;&lt;hr size=&quot;1&quot;&gt;&lt;p style=&quot;margin: 0px ; margin-left: 4px&quot;&gt;+ field: Type&lt;/p&gt;&lt;hr size=&quot;1&quot;&gt;&lt;p style=&quot;margin: 0px ; margin-left: 4px&quot;&gt;+ method(): Type&lt;/p&gt;" style="verticalAlign=top;align=left;overflow=fill;fontSize=12;fontFamily=Helvetica;html=1;" vertex="1" parent="1">
          <mxGeometry x="830" y="-280" width="160" height="90" as="geometry" />
        </mxCell>
        <mxCell id="4IxoNGBiL0sOaZmvlDB4-10" value="Extends" style="endArrow=block;endSize=16;endFill=0;html=1;exitX=0.5;exitY=0;exitDx=0;exitDy=0;entryX=0.5;entryY=1;entryDx=0;entryDy=0;" edge="1" parent="1" source="rtTn-14dv-DHAK5EhPJp-5" target="4IxoNGBiL0sOaZmvlDB4-9">
          <mxGeometry width="160" relative="1" as="geometry">
            <mxPoint x="753" y="220" as="sourcePoint" />
            <mxPoint x="913" y="220" as="targetPoint" />
          </mxGeometry>
        </mxCell>
        <mxCell id="4IxoNGBiL0sOaZmvlDB4-11" value="Use" style="endArrow=open;endSize=12;dashed=1;html=1;exitX=0.5;exitY=1;exitDx=0;exitDy=0;entryX=0.5;entryY=1;entryDx=0;entryDy=0;" edge="1" parent="1" source="rtTn-14dv-DHAK5EhPJp-35" target="rtTn-14dv-DHAK5EhPJp-11">
          <mxGeometry width="160" relative="1" as="geometry">
            <mxPoint x="280" y="655" as="sourcePoint" />
            <mxPoint x="950" y="655" as="targetPoint" />
            <Array as="points">
              <mxPoint x="600" y="770" />
            </Array>
          </mxGeometry>
        </mxCell>
        <mxCell id="4IxoNGBiL0sOaZmvlDB4-12" value="Use" style="endArrow=open;endSize=12;dashed=1;html=1;exitX=0.5;exitY=1;exitDx=0;exitDy=0;entryX=0.5;entryY=1;entryDx=0;entryDy=0;" edge="1" parent="1" source="rtTn-14dv-DHAK5EhPJp-36" target="rtTn-14dv-DHAK5EhPJp-12">
          <mxGeometry width="160" relative="1" as="geometry">
            <mxPoint x="540" y="665" as="sourcePoint" />
            <mxPoint x="1210" y="665" as="targetPoint" />
            <Array as="points">
              <mxPoint x="870" y="760" />
            </Array>
          </mxGeometry>
        </mxCell>
      </root>
    </mxGraphModel>
  </diagram>
</mxfile>
